<?xml version="1.0" encoding="UTF-8" standalone="no"?>
<svg
   version="1.0"
   width="400.000000pt"
   height="400.000000pt"
   viewBox="0 0 400.000000 400.000000"
   preserveAspectRatio="xMidYMid meet"
   id="svg91"
   sodipodi:docname="test.svg"
   inkscape:version="1.1.1 (3bf5ae0d25, 2021-09-20)"
   xmlns:inkscape="http://www.inkscape.org/namespaces/inkscape"
   xmlns:sodipodi="http://sodipodi.sourceforge.net/DTD/sodipodi-0.dtd"
   xmlns="http://www.w3.org/2000/svg"
   xmlns:svg="http://www.w3.org/2000/svg">
  <defs
     id="defs95" />
  <sodipodi:namedview
     id="namedview93"
     pagecolor="#ffffff"
     bordercolor="#666666"
     borderopacity="1.0"
     inkscape:pageshadow="2"
     inkscape:pageopacity="0.0"
     inkscape:pagecheckerboard="0"
     inkscape:document-units="pt"
     showgrid="false"
     inkscape:zoom="1.561875"
     inkscape:cx="267.94718"
     inkscape:cy="350.54022"
     inkscape:window-width="1920"
     inkscape:window-height="1051"
     inkscape:window-x="-9"
     inkscape:window-y="-9"
     inkscape:window-maximized="1"
     inkscape:current-layer="svg91" />
  <g
     transform="translate(0.000000,400.000000) scale(0.100000,-0.100000)"
     fill="#000000"
     stroke="none"
     id="g89">
    <path
       d="m 1910,3540 c -10,-10 -22,-48 -29,-93 -7,-43 -14,-77 -16,-77 -1,0 -11,32 -20,71 -22,87 -42,104 -116,97 -87,-9 -87,-3 -15,-266 35,-129 71,-241 80,-250 12,-12 32,-16 83,-14 38,2 73,8 79,15 10,10 124,450 124,477 0,17 -43,38 -99,48 -45,8 -56,7 -71,-8 z m 96.3892,-39.5176 c 1,-1 -19.6046,-95.2091 -50.6046,-217.2091 l -52.1932,-214.8459 -47.8647,-1.7586 -42.595,1.7586 -60.7362,211.997 c -32,118 -54.3023,213.4534 -54.3023,213.4534 1,2 22.5466,0.1801 43.5466,2.1801 l 30.4079,5.7575 38.1324,-169.6643 c 22,-95 42.1511,-179.7909 52.9421,-175.971 2.828,1.0011 11.1221,19 15.1221,43 4,23 18.8489,109.5176 33.8489,185.5176 l 26.2733,125.6915 35.2091,-0.058 c 22,-4 31.8136,-8.8488 32.8136,-9.8488 z"
       id="path53"
       sodipodi:nodetypes="scscccsccscsscccccccccsccccs" />
    <path
       d="m 1455,3491 -30,-7 3,-99 2,-100 -82,88 c -46,48 -88,87 -94,87 -6,0 -31,-7 -57,-16 -44,-15 -47,-18 -47,-52 0,-38 37,-378 46,-420 2,-12 14,-32 25,-43 17,-17 28,-19 72,-13 78,10 82,17 67,114 -7,44 -10,83 -8,86 3,2 40,-34 83,-82 l 79,-86 44,5 c 78,9 76,2 56,272 -16,211 -20,240 -38,256 -20,19 -63,23 -121,10 z m 80.3312,-46.8199 c 0,-11 -0.2153,-104.6335 8.7847,-214.6335 17,-212 34.675,-208.7846 -9.325,-209.7846 -10,0 -70.8488,52.209 -135.8488,124.209 -65,72 -128.762,133.2154 -130.762,127.2154 -2,-6 -0.7909,-82.733 14.4534,-153.8841 12,-73 3.4471,-122.3892 12.2091,-131.029 -2,-1 -6.8426,-0.3312 -26.8426,-4.3312 -28,-5 -31.6335,-7.2444 -31.6335,1.7556 0,7 -9.3023,103.4245 -23.3023,213.4245 -13,110 -18.8778,193.238 -14.8778,197.238 4,4 10.0869,11.6977 24.0869,14.6977 24,6 30.2091,-5.4244 133.2091,-119.4244 62.1511,-76.6398 126.1864,-119.1511 127.1864,-114.1511 4,10 -13.1512,187.8199 -23.1512,249.8199 -6,31 -4.1511,26.4823 33.8489,30.4823 21,2 30.8136,3.1512 35.8136,4.1512 4,1 6.1511,-3.7557 6.1511,-15.7557 z"
       id="path55"
       sodipodi:nodetypes="cccccscscscccccccccsccsscccscsccccccs" />
    <path
       d="m 2145,3490 c -4,-6 -17,-115 -28,-241 l -21,-229 21,-22 c 17,-17 48,-25 145,-39 68,-10 131,-16 140,-13 16,5 21,18 33,101 6,37 4,43 -19,59 -23,14 -24,18 -11,28 10,7 18,34 22,69 7,71 -11,97 -66,97 -20,0 -43,5 -51,11 -11,8 4,9 55,6 97,-7 105,-1 105,78 0,56 -3,66 -23,79 -31,21 -290,35 -302,16 z m 191,-39.3375 72.1633,5.2096 -6.652,-42.721 0.9238,-38.5411 -32.7374,7.8787 c -24,3 -67.7909,6.1511 -89.7909,7.1511 l -38.9396,-2.8438 -11.1536,-54.796 c -3,-29 -0.6045,-63.4887 2.3955,-66.4887 2,-2 33.7521,5.5333 77.3375,-2.3022 48.9414,-8.7985 60.6903,-0.3747 57.0579,-29 -5.6465,-44.4982 -9.2443,-43.7204 -85.2443,-37.7204 l -65.2738,-0.6088 -1.1796,-52.9731 c -1.0018,-44.9889 2.6977,-47.5466 39.6977,-54.5466 20,-3 59.0057,-11.4211 81.5466,-6.8489 l 24.0227,-5.0932 -1.6046,-30.1158 c -3,-24 -19.6414,-21.0617 3.9758,-33.097 -20.3728,4.0932 -46.3715,13.5956 -110.3715,22.5956 l -105.1961,4.1412 1.6045,31.6045 c 8,51 29.9068,343.3602 29.9068,372.3602 0,22 -7.3376,16.2091 36.6624,10.2091 26,-3 81.1636,-8.4611 120.8489,-3.4534 z"
       id="path57"
       sodipodi:nodetypes="ccccccccccsccsccscccccccsssccscsccccccscs" />
    <path
       d="m 2560,3468 c -5,-13 -28,-119 -51,-236 l -42,-213 25,-25 c 18,-19 39,-27 80,-31 67,-7 72,-1 83,95 4,34 10,64 15,67 4,2 27,-38 50,-90 24,-52 48,-99 54,-104 19,-15 94,-20 112,-7 11,8 34,87 70,237 29,123 54,229 54,236 0,22 -67,53 -121,56 -60,2 -55,8 -80,-118 l -12,-60 -45,95 c -24,52 -51,100 -61,107 -9,7 -40,13 -69,13 -45,0 -54,-3 -62,-22 z m 120.3312,-84.4308 c 94,-210 123.791,-245.7846 130.791,-225.7846 5,11 23.5176,75.9711 36.5176,141.9711 l 22.5756,111.209 32.209,-1.1801 c 22,-3 30.8136,-15.9131 32.8136,-17.9131 2,-1 -16.1801,-84.0226 -44.1801,-203.0226 -46,-196 -50.4534,-210.7847 -69.4534,-210.7847 -11,0 -16.9357,1.8779 -22.9357,5.8781 -6,4 -44,75.9068 -85,165.9068 -79.6046,190.6687 -97.2217,188.5466 -115.8842,-8.8489 l -16.7267,-114.5113 -24.8136,3.8778 c -19,3 -30.6335,4.8778 -32.6335,7.8778 -4,4 34.1801,228.9358 65.1801,370.9358 9,44 3.7847,42.7557 34.7847,42.7557 31,0 17.1737,1.0932 43.1737,-56.9068 z"
       id="path59"
       sodipodi:nodetypes="cccccccccccscccccsccccccccssccccccscc" />
    <path
       d="m 866,3426 c -66,-18 -124,-39 -129,-47 -14,-23 86,-457 112,-482 20,-20 21,-20 123,-3 57,10 120,22 142,28 l 39,9 -6,58 c -8,74 -13,85 -42,101 -13,7 -22,17 -19,22 4,5 3,34 -1,64 -8,69 -36,99 -80,89 -64,-15 -81,-17 -65,-7 8,5 41,14 73,21 32,7 61,19 64,27 9,23 -18,114 -40,135 -26,24 -28,24 -171,-15 z m 134.1801,-27.6688 c 2,-10 -3.18642,-25.7267 -0.18642,-37.7267 6.00002,-19 8.33752,-11.5403 -64.66245,-26.5403 -44,-10 -81.69774,-26.6398 -81.69774,-28.6398 0,-26 29.94208,-109.6687 37.94208,-109.6687 5,0 36.2733,1.0579 66.2733,10.0579 30,9 53.60453,17.3955 55.60453,14.3955 3,-2 1.0579,-14.6335 5.0579,-33.6335 l 7.6758,-30.5962 -61.007,-19.7351 c -68,-20 -73.81991,-27.0932 -57.81991,-94.0932 l 12.21538,-23.1221 75.84886,16.3312 c 40.99997,11 71.05797,15.8778 74.05797,12.8778 3,-3 4.7267,-12.238 6.7267,-33.238 l 7.7233,-36.3741 -106.50797,-11.4395 c -60,-10 -103.36019,-18.1222 -106.36019,-16.1222 -8,9 -95.2733,386.5403 -91.2733,398.5403 3,10 170.51132,60.1801 205.51132,62.1801 6,1 11.87784,-4.4534 14.87784,-13.4534 z"
       id="path61"
       sodipodi:nodetypes="sccccccccccssccscccssscccccccsccccccc" />
    <path
       d="m 3076,3348 c -26,-40 -97,-261 -103,-320 -14,-135 84,-239 224,-239 114,0 168,73 228,304 35,138 34,156 -6,177 -11,6 -45,12 -76,13 -64,2 -53,18 -99,-148 -31,-114 -60,-178 -77,-172 -18,6 -10,50 36,190 31,96 39,132 31,145 -10,17 -109,71 -131,72 -7,0 -19,-10 -27,-22 z m 70.6045,-40.2154 c 17,-9 22.7847,-12.0579 22.7847,-15.0579 0,-3 -11.029,-40.3312 -28.029,-87.3312 -65,-185 -61.3602,-259.9131 -6.3602,-280.9131 64,-24 106.5176,33.6687 156.5176,224.6687 l 25.5348,107.5666 32.9476,-6.962 c 19,-4 31.0041,-7.8639 34.0041,-9.8639 8,-8 -59.6439,-247.6185 -83.6439,-295.6185 -46,-91 -127.5403,-118.9068 -208.5403,-70.9068 -75,44 -95.7267,119.7846 -60.7267,236.7846 31,103 72.6045,213.4824 81.6045,213.4824 6,0 17.9068,-7.8489 33.9068,-15.8489 z"
       id="path63"
       sodipodi:nodetypes="ccsccccccccccscccccccccsc" />
    <path
       d="m 545,3296 c -30,-6 -51,-17 -52,-26 -6,-29 134,-472 155,-493 l 20,-20 56,23 c 30,12 60,28 67,36 16,19 -113,451 -143,477 -23,19 -33,20 -103,3 z m 125.90679,-236.2443 49.96472,-196.5114 -13.99368,-11.4534 c -15,-8 -29.33123,-14.1511 -36.33123,-14.1511 -11,0 -87.05792,234.4181 -129.05792,398.4181 -5,17 3.08689,21.6046 48.08689,23.6046 24,1 22.33122,-1.9068 81.33122,-199.9068 z"
       id="path65"
       sodipodi:nodetypes="ccsccccccccsccc" />
    <path
       d="m 3531,3227 c -5,-13 -43,-108 -85,-211 -42,-104 -76,-196 -76,-206 0,-9 8,-24 18,-33 29,-27 233,-118 256,-115 13,2 29,19 43,48 26,54 21.9976,67.1957 0.9976,90.1957 -14,16 -7.9976,28.8043 10.0024,33.8043 19,6 62,89 62,119 0,20 -29,43 -72,57 -36,11 -45,20 -32,32 3,3 32,-5 64,-18 33,-13 67,-24 75,-24 17,0 44,54 52,106 7,41 -7,50 -152,103 -128,48 -152,50 -164,18 z m 241.994,-94.401 c 2,-2 0.8007,-12.7971 -6.1993,-32.7971 -13,-40 -19.0036,-25.5942 -91.994,0 l -61.9229,24.2913 -29.6398,-43.1801 c -12,-26 -16.4823,-63.1574 -16.4823,-67.1574 -1,-3 29.6977,-17.2733 65.6977,-29.2733 36,-12 60.7557,-20.4534 60.7557,-22.4534 0,-3 -5.3023,-14.4824 -14.3023,-32.4824 l -11.8177,-33.0503 -60.5425,21.5969 c -35,12 -71.0932,20.6977 -73.0932,17.6977 -3,-3 -14.1222,-27.7909 -22.1222,-47.7909 l -14.9698,-44.6644 75.6676,-29.7953 c 41,-15 70.3312,-21.7846 70.3312,-24.7846 0,-2 -8.6977,-11.0869 -16.6977,-30.0869 -17,-41 10.1284,-41.7267 -124.8716,20.2733 l -85.209,38.0289 11.4823,33.3602 c 9,22 49.5408,112.2666 85.5408,200.2666 l 55.9964,153.5967 104.1981,-33.9976 c 61,-21 98.1945,-35.5979 100.1945,-37.5979 z m -119.5906,-285.198 c 39,-17 14.9976,-38.4082 -31.0024,-20.4082 -19,7 -30.401,32.0072 -22.401,32.0072 8,0 37.4034,-3.599 53.4034,-11.599 z"
       id="path67"
       sodipodi:nodetypes="ccscccccscccscccscccccsscccccccscccccccsccsc" />
    <path
       d="m 200,3217 c -61,-26 -140,-73 -140,-85 0,-11 154,-403 168,-429 10,-17 22,-23 48,-23 46,0 147,26 195,51 95,48 117,165 47,245 -24,27 -32,47 -34,78 -2,68 -48,142 -106,172 -40,21 -115,17 -178,-9 z m 165.02896,-41.6398 c 47,-29 65.1801,-96.1159 43.1801,-153.1159 -3,-8 12.36651,-33.2796 31.36651,-40.2796 20,-7 29.48236,-21.0289 39.48236,-44.0289 25.02264,-105.6688 0.18641,-139.2317 -156.81359,-180.7494 l -66.15113,-17.5466 -17.27331,36.0579 c -95,234 -129.05792,345.3313 -117.05792,353.3313 104,70 184.26698,84.3312 243.26698,46.3312 z"
       id="path69"
       sodipodi:nodetypes="cscscccccccccccccc" />
    <path
       d="m 223,3123.0932 c -28,-13 -35.63981,-25.8841 -10.63981,-93.8841 l 23.97104,-57.9711 42.43733,20.7748 c 68.39547,18.1801 82.62691,77.598 48.62691,126.598 -17,24 -65.39547,23.4824 -104.39547,4.4824 z M 308,3058 c -7,-19 -38,-22 -38,-4 0,10 9,16 21,16 12,0 19,-5 17,-12 z"
       id="path71"
       sodipodi:nodetypes="cccccccssc" />
    <path
       d="m 301,2927.971 c -35,-16 -46.45888,-30.4688 -21.18641,-97.3665 8.72835,-23.1044 27.15745,-29.8199 55.15745,-23.8199 18,3 44.12217,15.5466 57.12217,23.5466 31,21 31.42443,78.6109 1.42443,99.6109 -27,19 -48.51764,16.0289 -92.51764,-1.9711 z M 366,2865 c -21,-16 -32,-13 -21,4 3,6 14,11 23,11 15,-1 15,-2 -2,-15 z"
       id="path73"
       sodipodi:nodetypes="cscccccccc" />
    <path
       d="m 1795,2825 c -5,-2 -64,-8 -131,-13 -135,-9 -180,-26 -247,-90 -72,-69 -83,-100 -137,-407 -20,-111 -25,-124 -68,-185 -25,-36 -76,-97 -114,-136 -37,-39 -68,-78 -68,-87 0,-28 49,-57 98,-57 41,0 49,5 96,53 l 51,52 3,-47 c 2,-31 -4,-63 -17,-93 -19,-42 -22,-44 -58,-42 -33,2 -38,-1 -41,-20 -3,-20 1,-23 32,-23 36,0 36,0 36,-42 0,-24 9,-61 19,-83 10,-22 21,-74 25,-115 13,-145 42,-257 86,-335 49,-85 180,-239 221,-261 37,-18 37,-39 0,-70 -68,-57 -73,-116 -44,-547 16,-234 16.4534,-285.0126336 32.4534,-285.0126336 22,0 33.0353,30.0126336 14.0353,268.0126336 -8,102 -18.5466,247.4534 -19.5466,327.4534 -3,138 -2,139.36019 20,170.36019 13,17 21.0579,42.18641 25.0579,42.18641 4,0 14.4534,-23.24434 24.4534,-46.24434 C 1643.4534,729.75566 1675,691 1699,661 l 41.5942,-52.0813 -16.5363,-116.22096 c -25.942,-184 -21.4534,-334.09321 -7.4534,-393.093211 C 1722.6045,70.604529 1735,50 1739,50 c 5,0 13.9421,64 12.9421,143 9.3375,78.84887 3.3022,194.4534 11.3022,261.4534 26.6046,96.60453 7.3602,120.15113 22.3602,99.15113 13,-18 14.4534,-67.15113 19.4534,-276.15113 3,-140 11.2444,-278.9194306 11.2444,-279.9194306 1,-2 42.2454,-11.1717684 84.6977,0.3954708 l 85.2443,-3.3954708 5.8842,44.0352796 c -46,223.000001 -59,413.000001 -32,465.000001 8,15 15.8715,56.43075 37.8715,73.43075 l 34.093,35.1367 L 2033,513 c -4,-64 0,-141 11,-232 10,-75 20,-155 22,-178 3,-24 9,-43 14,-43 15,0 28.6398,74.69774 18.6398,146.69774 1.791,44.94207 -14.1511,115.24433 -21.1511,166.24433 -10,71 -14.2444,104.9068 -5.2444,169.9068 11,78 9.7557,84.15113 46.7557,117.15113 22,19 52,50 66,69 l 25,35 -13.4308,-52.73302 C 2197.5692,690.26698 2215,674 2220,660 l 7,-25 12,29 c 7,16 63.6211,193.16242 56.9321,186.02789 C 2291.9321,868.02789 2246,766 2259,795 c 33,75 162.257,62.01001 231.257,20.01001 18,-11 8.743,10.98999 18.743,-6.01001 37,-61 201,-663 201,-740 0,-43 3,-49 21,-49 20,0 21,4 14,62 -10,98 -164,677 -197,743 -6,11 -29,38 -52,61 -22,23 -48,51 -56,63 -8,13 -40,30 -73,41 -32,11 -70,28 -86,39 -15,11 -40,23 -57,27 -47,11 -48,15 -10,46 39,32 68,82 96,162 15,46 19,50 61,60 92,24 179.7557,103.6045 208.7557,189.6045 24,72 25.2443,158.3955 -2.7557,193.3955 -17,20 -22,35 -17,53 6,22 11,25 46,23 21,-1 68,-15 104,-32 74,-35 87,-37 118,-15 39,27 29,62 -44,155 -103,130 -111,154 -118,349 -4,91 -12,190 -17,220 -15,74 -64,164 -110,201 -59,46 -160,89 -262,110 -52,10 -114,26 -138,35 -32,12 -85,18 -189,20 -80,2 -149,1 -155,-1 z m 311,-46 c 43,-11 120,-29 169,-39 88,-19 252,-89 227,-98 -19,-6 -14,-22 7,-22 27,0 76,-60 94,-117 20,-62 25,-104 33,-293 6,-144 8,-158 34,-210 16,-30 56,-89 90,-130 33,-41 59,-82 57,-90 -4,-26 -48,-23 -101,7 -49,27 -56,28 -201,29 -180,2 -238,17 -360,94 -114,73 -152,81 -368,84 -137,1 -203,7 -265,21 -105,24 -158,15 -287,-49 -49,-25 -111.3443,-55.0053 -122.3443,-59.0053 -17,-6 -1.6557,-1.9947 27.3443,-6.9947 28,-5 31,-8 17,-14 -22,-10 -76.1957,1 -76.1957,15 0,6 18.1957,43 55.1957,82 36,40 85,101 110,137 44,64 45,69 78,258 37,206 50,242 107,281 26,18 28,22 12,18 -33,-7 -28,8 10,37 46,35 117,66 152,65 h 30 l -25,-14 c -31,-18 -7,-20 38,-4 117,41 339,49 458,18 z m -556,-795 c 51,-11 123,-15 225,-15 212,1 251,-8 385,-92 57,-36 69,-49 93,-102 15,-33 27,-63 27,-67 0,-5 -29,-8 -64,-8 -64,0 -65,0 -75,33 -16,48 -69,107 -115,128 -48,22 -124,24 -169,5 -33,-13 -117,-97 -117,-116 0,-5 -22,-10 -50,-10 h -49 l -22,50 c -26,61 -74,105 -131,121 -48,12 -112,5 -146,-17 -31,-20 -35,-15 -27,40 6,37 12,47 34,55 40,14 118,13 201,-5 z m -92,-91 c -10,-2 -28,-2 -40,0 -13,2 -5,4 17,4 22,1 32,-1 23,-4 z m 25,-27 c 21,-8 48,-22 59,-33 23,-20 57,-89 58,-115 0,-16 -3,-16 -33,2 -19,11 -53,22 -78,26 -50,6 -130,-14 -137,-35 -4,-11 0,-12 14,-6 60,26 196,14 224,-20 29,-34 -51,-145 -115,-161 -39,-10 -105,2 -134,24 -25,19 -26,23 -29,142 -3,137 -1,142 63,171 47,22 58,22 108,5 z m 434,-12 c -3,-3 -12,-4 -19,-1 -8,3 -5,6 6,6 11,1 17,-2 13,-5 z m 66,-1 c -7,-2 -19,-2 -25,0 -7,3 -2,5 12,5 14,0 19,-2 13,-5 z m 9,-23 c 44,-13 103,-75 113,-120 9,-41 4,-45 -36,-24 -55,28 -144,30 -214,3 -71,-26 -59,-37 16,-15 65,20 92,20 155,1 75,-22 86,-33 74,-74 -11,-39 -51,-86 -92,-107 -65,-34 -161,-8 -208,58 -35,48 -44,96 -29,150 15,59 41,92 91,117 48,23 76,26 130,11 z m -715,-117 c -3,-10 -5,-4 -5,12 0,17 2,24 5,18 2,-7 2,-21 0,-30 z m 1260.9647,-45.1285 c 59,-75 -5.1158,-203.8589 -124.1158,-282.534 C 2376.8489,1367.3375 2310,1355 2310,1371 c 0,6 18.8841,55.8489 27.8841,108.8489 16,94 5.9648,84.267 48.9648,122.267 25,21 55.2443,60.3375 64.2443,76.3375 20,40 56.8715,27.4181 86.8715,-10.5819 z M 1723,1639 c 8,-66 47,-132 99,-167 36,-23 52,-27 113,-27 61,0 77,4 113,28 51,34 92,93 99,144 l 5,39 70,-9.4887 67.2512,5.3495 -13.4376,-72.7097 c -8,-91 -49.0353,-230.6624 -73.0353,-290.6624 -29.1864,-29.4761 -40.9294,-110.6046 -48.9294,-102.6046 -3,3 -18.1512,-2.6045 -35.1512,-16.6045 -36,-31 -93.8498,-0.4099 -113.3022,-65.9421 -3,3 -14.3955,-8.3375 -22.3955,-15.3375 -8,-6 -26,-0.267 -41,-1.267 -15,-2 -54,-10.8489 -87,-18.8489 -68,-18 -140.5275,-18.3937 -150,-17.8841 -3,6 -25.7557,18.0353 -60.7557,14.0353 -52,-5 -62.3022,-8.9421 -102.3022,15.0579 -25,14 -57.9421,30.9068 -64.9421,41.9068 -11,15 -16,17 -20,7 -6,-18 -52,25 -82,77 -24,41 -51,152 -62,255 l -6,59 39,-20 c 54,-28 146,-23 193,10 46,33 88,95 96,141 6,38 8,40 44,40 h 38 z m 525,-628 c 21,-11 44,-27 51,-35 8,-9 22,-16 33,-16 10,0 35,-7 56,-16 l 37,-17 -59,-12 c -75,-16 -99,-35 -168,-132 -58,-82 -84,-106 -177,-162 l -53,-32 23,33 c 13,18 51,68 86,111 35,43 76,103 92,135 16,31 38,66 50,76 12,11 21,24 21,30 0,5 -15,-4 -32,-20 -44,-41 -85,-35 -110,16 -16,34 -16,36 5,53 27,22 89,17 145,-12 z m -188.0932,-63.09321 c 9,-21 18.7557,-44.15113 26.7557,-53.15113 14,-16 17.3954,-10.66245 2.3954,-37.66245 -35,-59 -152.5692,-109.9068 -212.5692,-91.9068 -69,21 -93,54.77831 -43,73.77831 17,6 27.5466,19.5466 27.5466,35.5466 0,21 3.6624,25.75566 83.6624,60.75566 50,23 77.2038,-13.89029 93.058,39.4534 1.1395,3.83424 3.9647,-12.75566 22.1511,-26.81359 z M 1760,870 c -20,-13 -33,-13 -25,0 3,6 14,10 23,10 15,0 15,-2 2,-10 z m -50,-25 c 0,-14 18,-73 40,-131 23,-59 39,-108 37,-110 -8,-9 -99,99 -117,139 -11,23 -20,61 -20,85 0,40 1,42 30,42 25,0 30,-4 30,-25 z m 47,-267 c -3,-8 -6,-5 -6,6 -1,11 2,17 5,13 3,-3 4,-12 1,-19 z m 300,-15 c -3,-10 -5,-4 -5,12 0,17 2,24 5,18 2,-7 2,-21 0,-30 z m -10,-156 c -2,-23 -3,-1 -3,48 0,50 1,68 3,42 2,-26 2,-67 0,-90 z m -300,36 c -3,-10 -5,-2 -5,17 0,19 2,27 5,18 2,-10 2,-26 0,-35 z m -10,-75 c -3,-7 -5,-2 -5,12 0,14 2,19 5,13 2,-7 2,-19 0,-25 z m 320,-45 c -3,-10 -5,-4 -5,12 0,17 2,24 5,18 2,-7 2,-21 0,-30 z m -330,-55 c -2,-13 -4,-3 -4,22 0,25 2,35 4,23 2,-13 2,-33 0,-45 z m 340,-15 c -3,-10 -5,-2 -5,17 0,19 2,27 5,18 2,-10 2,-26 0,-35 z m 10,-90 c -2,-16 -4,-5 -4,22 0,28 2,40 4,28 2,-13 2,-35 0,-50 z m -350,-5 c -2,-13 -4,-5 -4,17 -1,22 1,32 4,23 2,-10 2,-28 0,-40 z"
       id="path75"
       sodipodi:nodetypes="ccccccssccccccssscccccscccscccccscccccsccccccccsccccccccccccccsscccccccccccccccccccccscccccsccccccccccccccscccccccccccccccsscccssccccccccccccccccccccccccccccccsccccccccccccccsccccsccccccssccccccsccccccccccccccccsccccscccccccsccscccccccccscscccscscccssscccccsccsssscscccscccscccscccscccscccccc" />
    <path
       d="M2465 1658 c-48 -38 -85 -98 -85 -139 0 -21 -4 -41 -10 -44 -13 -8 -13 -52 0 -60 5 -3 22 1 37 10 26 15 16 14 -22 -1 -20 -8 -20 24 0 62 8 16 15 40 15 54 0 33 45 89 59 75 6 -6 15 -28 20 -50 8 -36 9 -37 10 -10 0 17 -5 42 -13 57 -16 30 -10 39 35 57 22 9 22 10 3 10 -12 1 -34 -9 -49 -21z"
       id="path77" />
    <path
       d="M1646 1605 c-18 -72 -30 -102 -52 -128 -13 -16 -27 -40 -30 -53 -6 -25 12 -58 26 -49 5 3 11 1 14 -4 3 -5 19 -14 36 -19 29 -11 29 -10 -10 27 -45 42 -50 69 -20 96 23 20 54 115 47 143 -3 12 -6 8 -11 -13z m-63 -195 c3 -11 1 -18 -4 -14 -5 3 -9 12 -9 20 0 20 7 17 13 -6z"
       id="path79" />
    <path
       d="M1781 1403 c-1 -30 -19 -38 -40 -19 -10 9 -23 16 -31 16 -7 0 -1 -9 13 -20 43 -34 76 -20 64 27 -4 15 -5 14 -6 -4z"
       id="path81" />
    <path
       d="m 1461.8136,1325.5466 c -11,-22 5.1864,-45.5466 23.1864,-45.5466 7,0 3.1159,-14.2443 7.1159,-27.2443 3,-13 35.8841,-49.0932 57.8841,-74.0932 43,-49 90.1511,-63.7557 170.1511,-63.7557 71,0 117.8489,25.0932 160.8489,73.0932 21,25 48.3375,44.7557 48.3375,49.7557 0,6 -8,3 0,0 26,-9 41.6046,33.7909 18.6046,57.7909 -19,19 -36.5466,26.0932 -161.5466,29.0932 -76,1 -153.4534,6.1511 -175.4534,11.1511 -65,17 -139.1285,9.7557 -149.1285,-10.2443 z M 1752,1245 c 144,0 147,0 129,-19 -39,-39 -269,-39 -328,0 -36,23 -29,36 15,27 20,-4 103,-8 184,-8 z"
       id="path83"
       sodipodi:nodetypes="ssccscsccccsscccs" />
    <path
       d="m 1607.8489,630.65244 c -10,-72 -20.0353,-163.50131 -3.0353,-306.50131 35,-298.999998 45.3375,-333.861499 65.3375,-333.861499 11,0 55.892,-7.108457 32.5819,6.5466031 -1.7257,1.0109159 -15.7909,96.8615009 -25.7909,175.8615059 -11,79 -13.1159,212 -20.1159,294 -13,166 -12.8135,236.80357 -48.9773,163.9547 z"
       id="path85"
       sodipodi:nodetypes="ccssccc" />
    <path
       d="m 2293,469 c -7,-7 -13,-19 -13,-25 0,-7 25,-94 56,-194 36,-116 54,-190 50,-206 -5,-19 23.3149,-75.780929 40.3149,-75.780929 32,0 7.3249,126.420738 -37.6751,269.420739 -22,69 -48,153 -58,188 C 2316.6398,475.63981 2303,479 2293,469 Z"
       id="path87"
       sodipodi:nodetypes="ssccsccs" />
  </g>
  <path
     style="fill:#6c5d53;stroke-width:0.640256"
     d="m 363.41194,296.9632 c 0,0 -6.50552,-3.53194 -7.96933,-3.88152 -1.46383,-0.34958 -11.09914,-1.25801 -21.13516,-1.60373 -11.91567,-0.41048 -19.91351,-0.41467 -23.04922,-1.0771 -6.69998,-1.41539 -13.45474,-4.93094 -24.7561,-11.64887 -15.38645,-9.14624 -18.92012,-10.18223 -45.65502,-10.78661 -19.9079,-0.45004 -29.14485,-1.28962 -37.31884,-3.04796 -4.02322,-0.86545 -8.88858,-1.25336 -12.95831,-1.26207 -5.47388,-0.0117 -6.67247,0.60916 -11.59896,2.27908 -6.4616,2.19026 -30.61691,13.13295 -30.61691,13.13295 -0.11634,0.34902 4.27491,-0.52606 5.88497,-0.28462 5.48815,0.823 0.76088,4.57764 -5.37952,4.23665 -2.40891,-0.13378 -5.1093,-0.30512 -5.7555,-3.1451 -0.76496,-3.36193 2.4459,-4.80122 9.16873,-12.52865 8.24416,-9.4761 15.04603,-18.75087 17.45593,-23.76704 2.21588,-4.61229 2.54872,-6.19626 7.23573,-31.35313 4.38079,-23.51333 5.42365,-28.33285 12.92405,-32.92807 l 2.02824,-3.2464 3.28229,-0.22636 -8.33229,1.96293 4.28897,-5.60296 c 4.78026,-6.24478 15.79405,-9.71448 21.13197,-9.7092 L 218,162.8 l -3.08066,1.7904 c -1.60036,0.93009 -2.65422,1.51187 -2.13845,2.02764 0.51578,0.51577 3.61079,-0.64823 9.00186,-2.16681 12.69511,-3.57601 16.39184,-5.05572 33.7732,-5.05667 12.1676,-6.7e-4 17.78207,1.25348 21.50684,2.06849 15.88784,3.4764 33.22646,8.1179 38.20842,9.85363 10.34445,3.60404 22.0348,9.98859 18.58685,9.98859 -0.35215,0 -1.88527,0.45194 -1.88527,1.14265 0,0.91928 2.03139,0.8712 3.8702,1.36634 2.91905,0.78602 7.28963,5.85268 9.61382,10.45478 4.05217,8.0237 5.03858,15.42964 6.28981,39.85006 1.08595,21.19461 1.63641,25.20433 3.56762,29.70965 1.62686,3.79532 5.80306,11.8467 13.53234,20.6272 7.3199,8.31545 7.56675,13.07187 6.58343,14.25671 -1.3393,1.61374 -7.62115,2.39554 -12.01807,-1.74946 z"
     id="path288"
     transform="scale(0.75)"
     sodipodi:nodetypes="csssssssssssssssscccsccssssssssssssssc" />
  <path
     style="fill:#ffeeaa;stroke-width:0.640256"
     d="m 228.59633,393.40128 c -1.48063,-0.77207 -3.65417,-0.94786 -9.92397,-0.80261 l -8.0281,0.18597 -4.13688,-2.23465 c -2.27528,-1.22907 -5.82749,-3.79941 -7.8938,-5.71188 -2.73104,-2.52771 -3.8961,-3.25204 -4.26658,-2.65257 -1.45309,2.35114 -7.69411,-3.85224 -11.24732,-11.17948 -2.75734,-5.68603 -5.84539,-18.30018 -7.3425,-29.99282 -0.63664,-4.97225 -1.08572,-9.11748 -0.99794,-9.21162 0.0878,-0.0941 2.14739,0.77021 4.57692,1.92077 4.19312,1.98575 4.79177,2.09194 11.79375,2.09194 7.04731,0 7.56739,-0.094 11.65714,-2.1074 6.83848,-3.36658 14.27173,-13.05876 15.56992,-20.30157 0.81738,-4.56025 1.11937,-4.80192 6.00073,-4.80192 h 4.38468 l 0.44642,4.32173 c 1.21683,11.77992 7.78803,22.00054 16.86694,26.23425 3.0876,1.43982 4.18846,1.58488 12.02751,1.58488 8.10522,0 8.84629,-0.1064 12.21252,-1.75334 5.2976,-2.59187 11.21766,-8.71122 13.95659,-14.4264 1.24423,-2.59628 2.26225,-5.34088 2.26225,-6.09912 0,-0.75823 0.18007,-2.27897 0.40016,-3.37941 l 0.40016,-2.0008 h 8.95928 8.95928 l -0.439,5.60224 c -1.00809,12.86451 -4.58772,31.93993 -7.72432,41.16192 -2.65167,7.79624 -8.15976,16.6212 -10.3741,16.6212 -0.54188,0 -2.89831,1.41823 -5.23652,3.15162 -4.91497,3.64361 -13.1187,7.97888 -14.30257,7.5582 -0.44575,-0.15838 -1.84826,0.23238 -3.11671,0.86837 -1.26845,0.63599 -6.02236,1.93398 -10.56423,2.88443 -18.33961,3.83782 -21.6274,4.16397 -24.87971,2.46807 z m 12.61802,-11.10168 c 4.24198,-1.65746 9.23699,-5.9559 12.96732,-11.15901 2.18921,-3.05353 2.86313,-3.5766 4.64186,-3.60286 1.98326,-0.0293 2.08083,-0.14672 2.08083,-2.50444 0,-3.01057 -2.24231,-5.55259 -5.68795,-6.44823 -1.27339,-0.33099 -10.00808,-0.91006 -19.41042,-1.28682 -9.40235,-0.37676 -19.34233,-1.11502 -22.08884,-1.64058 -5.80422,-1.11066 -14.43816,-1.25744 -16.27088,-0.27659 -2.88762,1.5454 -2.98506,6.69411 -0.14021,7.40812 1.07028,0.26863 2.05382,1.40386 3.10614,3.58522 4.21731,8.74207 11.13813,14.83929 19.19564,16.91131 5.14195,1.32227 17.09474,0.77674 21.60651,-0.98612 z m -19.36561,-28.62036 c 0,-0.21031 -1.8538,-2.30258 -4.11957,-4.6495 -6.24572,-6.46946 -6.43233,-7.65328 -2.06868,-13.12391 2.36058,-2.95943 4.98645,-10.55678 5.39795,-15.61771 0.41734,-5.13284 -0.67297,-5.30077 -2.07854,-0.32013 -2.32946,8.25444 -3.75247,11.85592 -5.82294,14.73718 -3.48875,4.85494 -4.9036,7.90038 -4.86803,10.47832 0.0478,3.46531 1.07748,5.0366 3.30045,5.0366 1.02325,0 2.05706,0.31811 2.29736,0.70692 0.95012,1.53733 7.962,3.96114 7.962,2.75223 z m 16.35071,-3.08608 c 0.71309,-1.08831 0.88597,-2.23065 0.58244,-3.84861 -0.5216,-2.78038 -1.567,-3.66238 -1.567,-1.32208 0,2.20343 -1.07976,4.15736 -2.2974,4.15736 -0.5345,0 -2.03182,-0.72029 -3.32737,-1.60064 -2.62325,-1.78254 -3.97908,-2.03451 -3.97908,-0.73949 0,1.76561 4.925,4.83289 7.82838,4.87552 1.15823,0.017 2.08731,-0.49535 2.76003,-1.52206 z"
     id="path553"
     transform="scale(0.75)" />
  <path
     style="fill:#ffeeaa;stroke-width:0.640256"
     d="m 286.91616,304.60184 c -0.49966,-0.79232 -1.12259,-2.16086 -1.3843,-3.04122 -1.49502,-5.02922 -9.29678,-13.72123 -14.63035,-16.29979 -6.41736,-3.10253 -17.27916,-3.59004 -23.1224,-1.03779 -3.49438,1.52629 -10.04801,7.08925 -13.10864,11.12709 -4.45594,5.87864 -3.89833,5.57208 -10.10064,5.55303 l -5.60224,-0.0172 -1.88267,-4.30451 c -5.13733,-11.74599 -12.10108,-17.56969 -22.76719,-19.03995 -4.02934,-0.55543 -10.91527,0.68499 -15.04425,2.71003 -1.91807,0.94071 -3.69025,1.50752 -3.93819,1.25958 -0.70159,-0.70159 0.82338,-9.27311 1.95782,-11.00449 0.58067,-0.88621 2.17958,-1.8888 3.73759,-2.34363 4.20401,-1.22729 16.33611,-0.85936 24.49151,0.74276 5.86283,1.15175 10.69004,1.47664 28.81152,1.93917 23.88846,0.60971 26.00301,0.77672 32.83583,2.59335 8.624,2.29285 25.55501,12.1055 29.25335,16.95427 2.00869,2.63352 6.71308,12.79222 6.72844,14.52945 0.009,1.00528 -0.7783,1.12045 -7.6584,1.12045 -7.2563,0 -7.71712,-0.0774 -8.57679,-1.44058 z"
     id="path703"
     transform="scale(0.75)" />
  <path
     style="fill:#ffeeaa;stroke-width:0.640256"
     d="m 251.24135,334.28391 c -9.21762,-3.60635 -15.48738,-12.17465 -15.5001,-21.18251 -0.0153,-10.83958 5.72442,-19.44782 15.37852,-23.0642 4.48691,-1.68078 8.93973,-1.8043 13.8269,-0.38356 6.78597,1.97274 14.73966,11.02586 15.65005,17.81335 0.40474,3.01752 0.62361,3.01323 -6.24698,0.12248 -7.84099,-3.29903 -20.57791,-2.7685 -29.61184,1.23343 -7.08672,3.13932 -3.72845,3.97138 5.60674,1.38914 7.64511,-2.11475 12.08207,-2.05921 19.8438,0.24839 7.46748,2.2201 9.52627,3.56992 9.80868,6.43089 0.46902,4.75154 -6.35471,13.72522 -12.92754,17.0006 -4.03103,2.00875 -11.23961,2.18727 -15.82823,0.39199 z"
     id="path742"
     transform="scale(0.75)" />
  <path
     style="fill:#ffeeaa;stroke-width:0.640256"
     d="m 186.64031,329.70607 c -4.84974,-1.01258 -8.50579,-3.24508 -9.87686,-6.03114 -1.0955,-2.22608 -1.23344,-4.0632 -1.28052,-17.05454 -0.0625,-17.23984 -0.23151,-16.77586 7.54424,-20.70749 6.09821,-3.08343 9.02274,-3.20157 15.43379,-0.62347 5.50537,2.2139 8.87959,5.46282 11.74579,11.30961 1.97727,4.03346 3.31877,8.80312 2.47593,8.80312 -0.20351,0 -1.74307,-0.73005 -3.42123,-1.62234 -5.3369,-2.83766 -9.43964,-3.69765 -15.86593,-3.32574 -6.56455,0.37992 -11.57902,1.9856 -13.0156,4.16774 -0.52885,0.80331 -0.7863,1.63579 -0.57213,1.84997 0.21418,0.21418 2.17968,-0.11291 4.36778,-0.72686 7.66404,-2.15042 21.85385,-0.98958 26.14856,2.13916 2.2879,1.66676 2.38585,4.55769 0.29895,8.82315 -2.07969,4.25075 -7.34546,9.78622 -11.16121,11.73287 -3.20217,1.63362 -8.53753,2.16042 -12.82156,1.26596 z"
     id="path781"
     transform="scale(0.75)" />
  <path
     style="fill:#ffeeaa;stroke-width:0.640256"
     d="m 308.66146,350.95422 c -0.51482,-0.83299 2.40729,-19.37058 3.8378,-24.34668 0.84433,-2.93702 1.74371,-4.16116 6.10482,-8.30921 2.81304,-2.6756 6.09668,-6.34428 7.29698,-8.15261 2.49885,-3.76467 4.97038,-5.09268 8.3114,-4.4659 2.87815,0.53994 6.4467,4.06276 7.32717,7.23326 3.3011,11.88705 -7.41669,30.82532 -20.7939,36.7427 -3.56654,1.57765 -11.39204,2.41849 -12.08427,1.29844 z m 11.54022,-6.89442 c 0,-10e-6 2.57285,-2.00382 -2.83355,-0.46431 -1.29151,0.36777 -1.55231,-1.39737 -1.53971,-3.32984 0.008,-1.18553 1.40081,-2.54656 2.12737,-4.1312 0.72656,-1.58463 1.36495,-6.04559 1.83364,-8.25322 1.42258,-6.70059 5.57381,-11.78285 7.73257,-9.99124 0,0 2.0224,2.70757 2.66717,4.91266 1.56889,5.36561 1.78362,6.59835 1.78362,2.53413 0,-2.04087 -1.22786,-4.64636 -2.07005,-6.60408 -1.70398,-3.96102 -1.79111,-5.55049 2.72453,-7.72026 1.83216,-0.88035 4.46404,-1.02444 4.46529,-1.28855 0.001,-0.26411 -0.94972,-0.48019 -2.11327,-0.48019 -2.78543,0 -7.53282,3.06069 -10.79215,7.85205 -3.26016,4.79258 -5.44546,8.36196 -6.49295,13.73985 -0.4769,2.44846 -0.91884,5.41659 -1.4193,6.1311 -0.9237,1.31877 -1.90931,5.27118 -1.20039,7.11859 0.49786,1.29739 2.35892,1.28814 5.12718,-0.0255 z"
     id="path820"
     transform="scale(0.75)"
     sodipodi:nodetypes="sssssssscscssssssscssssssc" />
  <path
     style="fill:#ffeeaa;stroke-width:0.640256"
     d="m 247.57103,431.73283 c -1.52301,-0.53856 -3.77222,-1.98231 -4.99826,-3.20834 -3.14009,-3.1401 -2.84817,-5.46808 1.02691,-8.18929 2.0697,-1.45341 2.98337,-2.59745 3.29627,-4.12734 0.23809,-1.16411 0.97626,-2.65995 1.64038,-3.32407 1.31907,-1.31907 20.01039,-10.05766 22.63785,-10.58368 1.44746,-0.28979 1.79961,0.0484 3.20128,3.07397 0.86621,1.86976 2.68108,5.06577 4.03304,7.10225 l 2.45813,3.70268 -1.65717,2.82774 c -2.1844,3.7274 -5.34735,6.28097 -11.58241,9.35093 -8.69003,4.27872 -14.65978,5.28335 -20.05602,3.37515 z"
     id="path859"
     transform="scale(0.75)" />
  <path
     style="fill:#d3bc5f;stroke-width:0.46929"
     d="m 204.70703,403.01945 c -7.55951,-0.861 -1.57415,-0.45245 -6.59118,-1.62608 l -5.13189,-1.2005 1.88633,-5.94707 c 3.34813,-0.005 3.72701,-0.0923 3.50549,-0.80816 -0.55386,-1.78985 -3.23548,-16.6697 -3.97871,-22.07722 -1.00397,-7.30456 -1.14717,-21.11553 -0.2442,-23.55113 0.63824,-1.72156 4.80689,-6.13285 7.57368,-8.01455 l 1.48275,-1.00841 -0.026,11.78939 c -0.0242,11.01494 0.0915,12.65812 1.76174,25.01431 1.71868,12.71457 2.20993,14.98114 3.24693,14.98114 1.86683,0 1.86694,-8.98253 3.1e-4,-22.27924 -2.08187,-14.82988 -2.15192,-16.13321 -1.23064,-22.89634 0.44671,-3.27923 1.12663,-6.68277 1.51094,-7.56341 0.38432,-0.88063 2.69209,-3.56366 5.12839,-5.96226 2.4363,-2.3986 4.99126,-5.0822 5.67768,-5.96355 L 221,323.6 l -0.14597,3.68228 c -0.16315,4.11572 1.21994,7.73116 1.69634,8.01237 0.91024,0.53731 2.09156,-3.71358 2.16367,-7.78582 0.11814,-6.67124 2.65571,-10.9358 8.03489,-13.50313 7.32077,-3.494 16.32253,-0.92965 19.78216,6.55797 1.53792,3.32849 5.23986,18.0339 9.02411,31.21862 5.69943,19.85739 8.36822,31.08031 9.05155,37.41297 0.32741,3.03427 0.70033,4.52057 1.22835,4.8957 1.01348,0.72001 -0.65729,1.17041 -0.76932,2.97294 -0.33217,5.34444 -6.00274,4.85279 -12.24232,4.86049 -5.00227,0.006 -6.7101,0.37828 -10.92849,-0.99635 -5.5287,-1.8016 -4.10828,0.70108 -4.7589,-2.9385 -0.55341,-3.09575 -1.39691,-8.90055 -11.6697,-43.26227 -0.24085,-0.80562 -1.48014,-2.68106 -1.73294,-2.21875 -1.11253,2.03456 -1.74742,3.40716 -4.28759,2.17049 -1.48685,-0.72387 2.99944,-0.41255 2.99944,0.1643 0,0.57686 1.32448,6.02153 3.66953,13.55177 2.34506,7.53023 4.72261,15.4845 5.28344,17.67616 0.99673,3.89505 3.59195,14.31506 2.77496,14.31506 -0.22554,0 -2.2803,-0.45273 -2.31878,0.0937 -0.082,1.16388 -6.25379,4.4584 -4.78352,0.17863 0.25586,-0.74475 -2.22676,0.51596 -3.19842,1.14658 -0.97167,0.63063 -1.59052,-3.50407 -1.14417,-3.43729 11.34795,1.69774 4.04241,1.8611 4.3154,1.98659 6.45795,2.96863 -3.49654,1.00617 -3.11696,2.07149 1.33081,3.73502 -7.10664,0.30735 -8.40312,0.68298 -2.69694,0.78143 -4.40417,0.35671 -11.29904,-0.42943 z"
     id="path6137"
     sodipodi:nodetypes="csccssssccssssssscssssssssscsssssssssssssssscc" />
  <path
     style="fill:#d3bc5f;stroke-width:0.480192"
     d="m 158.74624,400.1652 c 1.57499,1.39074 -2.85138,1.6848 -2.60958,0.73271 0.79431,-3.12765 3.0606,-8.37298 2.11912,-20.72492 -1.59189,-20.88525 -2.01684,-29.31123 -2.11367,-41.91082 l -0.0912,-11.87069 1.27484,-2.16087 c 0.70116,-1.18847 1.82809,-2.67767 2.50431,-3.30931 l 1.22947,-1.14845 0.7613,1.38855 c 3.57431,6.51927 5.7669,9.93347 8.75654,13.63525 l 3.48205,4.31148 -0.93221,8.28753 c -2.20604,19.61245 -2.70188,36.1325 -1.26942,42.29405 0.91178,3.9219 1.62396,5.41739 2.2715,4.76985 0.26181,-0.26182 0.64456,-7.73087 0.88234,-17.21842 0.49031,-19.56338 1.76989,-33.2222 3.13513,-33.4656 1.57521,-0.28085 2.33566,9.14761 2.85817,35.43706 0.15747,7.92317 0.40079,15.32413 0.54071,16.44658 L 181.8,397.7 l 2.25148,0.0146 c 3.98954,0.0259 1.23552,3.29772 -5.37979,3.28011 -6.82631,-0.0182 -8.22415,1.7734 -9.08737,-0.86255 -1.1268,-3.44082 -4.5634,-36.54715 -5.61418,-49.01078 -0.57191,-6.78349 -1.36173,-13.17154 -1.75538,-14.19737 -1.48512,-3.87017 -2.88649,8.39141 -2.09827,18.35937 0.6169,7.80154 3.0783,29.0535 4.16187,35.93403 0.81841,5.19682 1.27984,6.4826 2.32641,6.4826 0.60138,0 -0.37145,2.66648 -0.3779,3.32151 -0.005,0.45799 -8.14465,3.12774 -7.73529,0.67161 z"
     id="path6213"
     sodipodi:nodetypes="cssscsscsscssssssscsssssssscsc" />
  <path
     style="fill:none;stroke-width:0.640256"
     d="m 33.17006,167.26691 c -0.221758,-0.61625 -2.969175,-7.60304 -6.10537,-15.52621 -6.371893,-16.09772 -12.013257,-32.2406 -12.016522,-34.38553 -0.0025,-1.65119 5.805247,-5.28206 13.123101,-8.20423 5.248071,-2.09567 12.539026,-2.78267 16.966786,-1.59873 3.941998,1.05406 8.294012,5.58271 9.776668,10.17349 1.222264,3.78452 1.449407,9.34337 0.48539,11.87892 -0.887459,2.3342 -0.395996,3.095 3.366891,5.2121 2.685058,1.51069 3.684944,2.57148 5.112683,5.42412 0.976164,1.9504 1.951439,5.03723 2.167276,6.85964 0.32954,2.78244 0.11952,3.87128 -1.310464,6.79406 -2.835919,5.79641 -9.009502,9.35856 -21.831666,12.59684 -8.781419,2.21778 -9.20367,2.25142 -9.734773,0.77553 z m 13.898908,-9.50611 c 2.095053,-0.62216 4.272006,-1.85087 5.558384,-3.13725 1.814514,-1.81452 2.114545,-2.55764 2.114545,-5.23739 0,-1.79362 -0.425329,-3.73009 -0.999251,-4.54948 -2.602111,-3.71503 -8.271783,-4.36524 -13.771896,-1.57938 -3.068038,1.55399 -3.500609,2.01709 -3.684461,3.94451 -0.200045,2.09715 1.913767,9.1197 3.245231,10.78138 0.866497,1.0814 3.398709,1.00669 7.537448,-0.22239 z m -9.899826,-23.36251 c 5.260407,-2.18991 7.687573,-4.51643 8.340001,-7.99418 0.601242,-3.20489 -1.254059,-7.7329 -3.806087,-9.28905 -2.854451,-1.74056 -8.274225,-1.64451 -11.955547,0.21187 -2.592294,1.30722 -2.851036,1.64802 -2.795008,3.68147 0.05602,2.03297 4.570798,15.36615 5.20317,15.36615 0.146454,0 2.402516,-0.88932 5.013471,-1.97626 z"
     id="path6979"
     transform="scale(0.75)" />
  <path
     style="fill:none;stroke-width:0.640256"
     d="m 33.17006,167.26691 c -0.221758,-0.61625 -2.969175,-7.60304 -6.10537,-15.52621 -6.371893,-16.09772 -12.013257,-32.2406 -12.016522,-34.38553 -0.0025,-1.65119 5.805247,-5.28206 13.123101,-8.20423 5.248071,-2.09567 12.539026,-2.78267 16.966786,-1.59873 3.941998,1.05406 8.294012,5.58271 9.776668,10.17349 1.222264,3.78452 1.449407,9.34337 0.48539,11.87892 -0.887459,2.3342 -0.395996,3.095 3.366891,5.2121 2.685058,1.51069 3.684944,2.57148 5.112683,5.42412 0.976164,1.9504 1.951439,5.03723 2.167276,6.85964 0.32954,2.78244 0.11952,3.87128 -1.310464,6.79406 -2.835919,5.79641 -9.009502,9.35856 -21.831666,12.59684 -8.781419,2.21778 -9.20367,2.25142 -9.734773,0.77553 z m 13.898908,-9.50611 c 2.095053,-0.62216 4.272006,-1.85087 5.558384,-3.13725 1.814514,-1.81452 2.114545,-2.55764 2.114545,-5.23739 0,-1.79362 -0.425329,-3.73009 -0.999251,-4.54948 -2.602111,-3.71503 -8.271783,-4.36524 -13.771896,-1.57938 -3.068038,1.55399 -3.500609,2.01709 -3.684461,3.94451 -0.200045,2.09715 1.913767,9.1197 3.245231,10.78138 0.866497,1.0814 3.398709,1.00669 7.537448,-0.22239 z m -9.899826,-23.36251 c 5.260407,-2.18991 7.687573,-4.51643 8.340001,-7.99418 0.601242,-3.20489 -1.254059,-7.7329 -3.806087,-9.28905 -2.854451,-1.74056 -8.274225,-1.64451 -11.955547,0.21187 -2.592294,1.30722 -2.851036,1.64802 -2.795008,3.68147 0.05602,2.03297 4.570798,15.36615 5.20317,15.36615 0.146454,0 2.402516,-0.88932 5.013471,-1.97626 z"
     id="path7018"
     transform="scale(0.75)" />
  <path
     style="fill:#000000;stroke-width:0.640256"
     d="m 33.17006,167.26691 c -0.221758,-0.61625 -2.969175,-7.60304 -6.10537,-15.52621 -6.371893,-16.09772 -12.013257,-32.2406 -12.016522,-34.38553 -0.0025,-1.65119 5.805247,-5.28206 13.123101,-8.20423 5.248071,-2.09567 12.539026,-2.78267 16.966786,-1.59873 3.941998,1.05406 8.294012,5.58271 9.776668,10.17349 1.222264,3.78452 1.449407,9.34337 0.48539,11.87892 -0.887459,2.3342 -0.395996,3.095 3.366891,5.2121 2.685058,1.51069 3.684944,2.57148 5.112683,5.42412 0.976164,1.9504 1.951439,5.03723 2.167276,6.85964 0.32954,2.78244 0.11952,3.87128 -1.310464,6.79406 -2.835919,5.79641 -9.009502,9.35856 -21.831666,12.59684 -8.781419,2.21778 -9.20367,2.25142 -9.734773,0.77553 z m 13.898908,-9.50611 c 2.095053,-0.62216 4.272006,-1.85087 5.558384,-3.13725 1.814514,-1.81452 2.114545,-2.55764 2.114545,-5.23739 0,-1.79362 -0.425329,-3.73009 -0.999251,-4.54948 -2.602111,-3.71503 -8.271783,-4.36524 -13.771896,-1.57938 -3.068038,1.55399 -3.500609,2.01709 -3.684461,3.94451 -0.200045,2.09715 1.913767,9.1197 3.245231,10.78138 0.866497,1.0814 3.398709,1.00669 7.537448,-0.22239 z m -9.899826,-23.36251 c 5.260407,-2.18991 7.687573,-4.51643 8.340001,-7.99418 0.601242,-3.20489 -1.254059,-7.7329 -3.806087,-9.28905 -2.854451,-1.74056 -8.274225,-1.64451 -11.955547,0.21187 -2.592294,1.30722 -2.851036,1.64802 -2.795008,3.68147 0.05602,2.03297 4.570798,15.36615 5.20317,15.36615 0.146454,0 2.402516,-0.88932 5.013471,-1.97626 z"
     id="path7057"
     transform="scale(0.75)" />
  <path
     style="fill:#000000;stroke-width:0.640256"
     d="M 86.593344,149.65986 C 82.239417,138.20635 72.909288,108.14639 71.702778,101.6852 c -0.429894,-2.302196 -0.383329,-2.373387 2.02384,-3.094143 1.355122,-0.405751 3.472262,-0.641883 4.704755,-0.524737 1.937146,0.184121 2.433929,0.603527 3.664984,3.09414 1.201801,2.43143 15.542699,49.07041 15.542699,50.54744 0,0.5223 -7.058851,3.87433 -8.158729,3.87433 -0.349614,0 -1.648756,-2.66506 -2.886983,-5.92237 z"
     id="path7170"
     transform="scale(0.75)" />
  <path
     style="fill:#000000;stroke-width:0.640256"
     d=""
     id="path7209"
     transform="scale(0.75)" />
  <path
     style="fill:#000000;stroke-width:0.640256"
     d="m 114.96623,139.36159 c -0.8298,-2.18255 -6.6354,-27.59244 -9.37576,-41.035788 -2.25065,-11.040956 -2.29495,-11.510883 -1.16331,-12.33836 2.39275,-1.749624 23.1162,-7.876198 26.64164,-7.876198 2.03462,0 2.84643,1.429007 3.49342,6.149321 l 0.3724,2.716931 -3.12157,0.914742 c -1.71687,0.503107 -6.05061,1.573516 -9.63055,2.378685 -3.57994,0.80517 -6.87233,1.688508 -7.31643,1.962974 -0.64891,0.401053 -0.64461,1.232061 0.0219,4.232606 1.22543,5.516537 3.21071,10.456267 4.20237,10.456267 0.47911,0 4.24607,-0.8702 8.37103,-1.93377 4.12496,-1.06358 7.60813,-1.82556 7.7404,-1.6933 0.57683,0.57683 2.04015,9.09538 1.62861,9.48074 -0.25072,0.23478 -3.33701,1.31064 -6.85842,2.3908 -9.88629,3.03254 -10.21638,3.48945 -8.50539,11.77324 0.67718,3.27862 0.94756,3.73149 2.08083,3.48533 0.71638,-0.15561 4.71897,-1.18573 8.89465,-2.28914 7.70452,-2.03592 10.33518,-2.40168 10.88421,-1.51332 0.16755,0.27109 0.50565,2.53296 0.75134,5.02638 l 0.44672,4.53348 -2.15413,0.36822 c -8.49363,1.45183 -21.82481,3.63634 -24.09513,3.94833 -2.45277,0.33707 -2.79239,0.22025 -3.30886,-1.13817 z"
     id="path7248"
     transform="scale(0.75)" />
  <path
     style="fill:#000000;stroke-width:0.640256"
     d=""
     id="path7287"
     transform="scale(0.75)" />
  <path
     style="fill:#000000;stroke-width:0.640256"
     d="m 163.97074,132.45455 c -0.24134,-2.24576 -1.28047,-11.14202 -2.30918,-19.76948 -1.0287,-8.62745 -2.19839,-19.414239 -2.59929,-23.970646 -0.81594,-9.273277 -0.72895,-9.520161 3.64327,-10.340395 2.99276,-0.561444 4.18781,0.452727 18.21312,15.456465 11.72559,12.543586 15.61728,16.209526 16.38874,15.438066 0.45463,-0.45463 -0.80683,-14.93946 -2.3326,-26.784317 -0.65002,-5.046205 -0.99065,-9.377696 -0.75696,-9.625535 0.23369,-0.247839 2.58466,-0.71206 5.22437,-1.031602 5.51424,-0.667508 5.73155,-0.52701 5.7586,3.723114 0.0101,1.584634 0.73431,12.10084 1.60939,23.369348 2.28196,29.385092 2.19099,31.553202 -1.36809,32.606172 -2.05846,0.60901 -6.17779,-2.99614 -17.92762,-15.68984 -5.67855,-6.13471 -12.01709,-12.73866 -14.08563,-14.67544 l -3.76099,-3.521404 -0.1945,1.998614 c -0.10697,1.09924 0.8294,9.04472 2.08083,17.65663 1.25143,8.61191 2.27533,16.10908 2.27533,16.66038 0,1.26472 -1.20635,1.72458 -5.7775,2.20236 l -3.64248,0.38071 z"
     id="path7326"
     transform="scale(0.75)" />
  <path
     style="fill:#000000;stroke-width:0.640256"
     d=""
     id="path7365"
     transform="scale(0.75)" />
  <path
     style="fill:#000000;stroke-width:0.640256"
     d="m 242.56063,124.41817 c -1.56073,-0.31836 -0.72246,2.40204 -10.27018,-33.32921 -3.40912,-12.758214 -6.02859,-23.366556 -5.82106,-23.574093 0.20754,-0.207537 2.49826,-0.537745 5.09049,-0.733795 l 4.71315,-0.356454 3.78024,16.247475 c 3.95846,17.01349 6.97683,28.516997 7.66234,29.202517 1.2195,1.21949 1.47621,0.0567 8.52675,-38.62196 l 1.64426,-9.020259 5.09594,0.81595 c 2.80277,0.448773 5.21565,0.935652 5.36196,1.081955 0.1463,0.146303 -2.99475,13.346046 -6.98011,29.332761 l -7.24611,29.066753 -5.09036,0.0846 c -2.7997,0.0465 -5.70999,-0.0418 -6.46731,-0.19625 z"
     id="path7404"
     transform="scale(0.75)" />
  <path
     style="fill:#000000;stroke-width:0.640256"
     d="m 298.36569,130.48399 c -7.39147,-1.03759 -13.53533,-1.98283 -13.65303,-2.10052 -0.11769,-0.1177 0.22687,-3.91407 0.76568,-8.43639 0.53882,-4.52231 1.58765,-15.13716 2.33073,-23.588537 0.74308,-8.45138 1.54813,-17.52701 1.789,-20.168067 l 0.43794,-4.801921 2.56103,0.09673 c 1.40856,0.0532 8.39536,0.314611 15.52621,0.580916 l 12.96519,0.48419 v 5.736255 c 0,5.634829 -0.0255,5.729514 -1.44058,5.355023 -2.0316,-0.537639 -20.22956,-2.001267 -20.57388,-1.654719 -0.15627,0.15728 -0.49219,3.671317 -0.74648,7.808972 l -0.46235,7.52301 3.12825,0.0038 c 1.72054,0.0021 5.51846,0.189895 8.43984,0.417298 6.18009,0.481066 6.86168,1.112539 6.17114,5.7174 -0.71939,4.7972 -1.10064,4.94666 -11.27453,4.41989 l -8.85166,-0.45831 0.009,4.71384 c 0.005,2.59262 0.36533,5.41405 0.80032,6.26986 1.03907,2.04429 3.05685,2.53251 12.533,3.03249 l 7.90058,0.41685 -0.39471,2.9395 c -1.07251,7.98727 -0.98433,7.74757 -2.81767,7.66018 -0.93744,-0.0447 -7.75199,-0.93018 -15.14346,-1.96778 z"
     id="path7443"
     transform="scale(0.75)" />
  <path
     style="fill:#000000;stroke-width:0.640256"
     d=""
     id="path7482"
     transform="scale(0.75)" />
  <path
     style="fill:#000000;stroke-width:0.640256"
     d="m 373.8614,136.39599 c -1.63602,-0.66201 -4.29469,-5.67294 -12.38956,-23.35126 -7.19384,-15.710557 -8.36635,-17.886692 -9.78459,-18.15982 -1.52863,-0.294388 -2.13644,2.248175 -4.71436,19.72093 -1.27289,8.62745 -2.36158,15.73636 -2.41932,15.79758 -0.18304,0.19407 -8.74248,-1.50176 -9.02972,-1.789 -0.64457,-0.64458 8.47235,-49.644281 9.96955,-53.582198 0.35482,-0.93326 0.98725,-1.914376 1.4054,-2.180256 1.27356,-0.809802 5.19744,-0.558933 6.59766,0.421813 0.74621,0.522672 4.16187,7.135057 7.85475,15.206083 10.96339,23.961148 12.5058,26.292108 14.02143,21.189928 0.39651,-1.33479 2.04749,-9.04678 3.66886,-17.137761 1.62136,-8.090977 3.03141,-14.79435 3.13345,-14.896384 0.10203,-0.102034 2.4202,0.146852 5.15149,0.55308 l 4.96597,0.738596 -0.40222,2.515318 c -0.67966,4.250368 -9.38234,41.473561 -11.04665,47.248841 -2.32104,8.05419 -3.33982,9.17837 -6.98214,7.70451 z"
     id="path7521"
     transform="scale(0.75)" />
  <path
     style="fill:#000000;stroke-width:0.640256"
     d="m 416.80672,152.80456 c -12.10127,-4.01001 -17.33421,-15.02426 -14.08744,-29.65114 1.75905,-7.92463 8.86885,-27.835243 11.59034,-32.458135 0.67054,-1.139016 0.81252,-1.131138 3.95162,0.219269 5.87133,2.525777 5.84637,1.643813 0.50813,17.950976 -2.58973,7.91107 -5.06711,16.43809 -5.50529,18.94892 -1.77727,10.1841 0.45743,14.89504 7.33627,15.46549 3.08274,0.25564 3.84704,0.0776 5.68527,-1.32451 4.49688,-3.42994 7.90877,-12.20713 14.57756,-37.50131 l 1.41047,-5.349811 2.63268,0.406574 c 1.44798,0.223616 3.59531,0.717257 4.77185,1.096977 2.03066,0.65539 2.1181,0.8087 1.72403,3.02247 -1.68214,9.44988 -8.39755,32.27581 -11.01549,37.44205 -4.7833,9.4394 -15.06351,14.5543 -23.58,11.73218 z"
     id="path7560"
     transform="scale(0.75)" />
  <path
     style="fill:#000000;stroke-width:0.640256"
     d="m 474.34974,166.52188 c -3.52141,-1.59483 -9.53,-4.2298 -13.55696,-5.61539 -3.76254,-1.29461 -6.01536,-3.28195 -5.84282,-3.65984 4.40704,-9.65195 20.29076,-51.0373 20.62957,-51.42349 0.37782,-0.43064 13.28693,4.10231 26.70138,9.22862 2.35328,0.8993 2.43464,1.14355 0.85874,5.6365 -0.79425,2.26443 -1.02586,3.25812 -1.9521,3.3955 -0.7202,0.10683 -5.27561,-1.39744 -10.12313,-3.34281 -4.84753,-1.94538 -9.02799,-3.4046 -9.28993,-3.24271 -0.69342,0.42856 -5.74408,12.12618 -5.74408,13.30363 0,0.94819 3.49944,2.5105 13.28532,5.93117 1.84874,0.64623 3.36134,1.3793 3.36134,1.62905 0,0.24976 -0.83967,2.32556 -1.86593,4.61291 l -1.86593,4.15881 -7.09294,-2.15339 c -10.66285,-3.2372 -10.1761,-5.21076 -12.61978,1.63821 -2.66894,7.4803 -5.27156,6.6735 5.05055,10.50103 5.01068,1.858 10.75646,3.20693 11.20335,3.4867 0.63482,0.39743 0.50532,1.2689 -0.59214,3.98476 -1.71414,4.24194 -2.31701,5.07762 -3.66012,5.07363 -0.57313,-0.002 -3.36299,-1.54806 -6.88439,-3.14289 z"
     id="path7599"
     transform="scale(0.75)"
     sodipodi:nodetypes="ssssssssssssscssssscs" />
  <path
     style="fill:#ffeeaa;stroke-width:0.113182"
     d="m 210.42299,347.01025 c -0.1691,-0.13301 -0.44564,-0.5042 -0.61454,-0.82488 -0.28092,-0.53333 -0.30714,-0.6911 -0.3075,-1.85045 -4.4e-4,-1.3683 0.1047,-1.67966 0.46662,-1.38192 0.50943,0.41908 1.21179,2.61683 1.1538,3.61032 -0.042,0.71891 -0.21326,0.82853 -0.69838,0.44693 z"
     id="path19614"
     transform="scale(0.75)" />
  <path
     style="fill:#000080;stroke-width:0.640256"
     d="m 30.423493,159.26371 c -6.294014,-15.98627 -12.909776,-33.99493 -13.961051,-38.00314 -1.014221,-3.86695 -1.007114,-4.05781 0.200781,-5.39252 1.591887,-1.75901 11.881273,-6.7635 15.66971,-7.62133 1.584634,-0.35882 5.057639,-0.65943 7.717787,-0.66804 4.244662,-0.0137 5.192642,0.21012 7.745333,1.82899 5.737693,3.63873 7.783289,8.3807 7.474601,17.32713 l -0.208629,6.04653 3.375522,2.2768 c 5.986919,4.0382 8.863212,12.81102 6.024573,18.37521 -1.71877,3.36906 -5.458407,6.67624 -9.954277,8.80312 -3.704112,1.75233 -16.889892,5.49912 -19.378783,5.50656 -1.158107,0.003 -1.872902,-1.28458 -4.705567,-8.47931 z m 17.498247,-1.50642 c 1.656486,-0.56442 3.868675,-1.8831 4.915975,-2.9304 1.649512,-1.64951 1.904182,-2.37419 1.904182,-5.41843 0,-1.93284 -0.296657,-4.06856 -0.659236,-4.74605 -2.192366,-4.09647 -12.308317,-4.19363 -16.764311,-0.16101 -1.510632,1.3671 -1.47172,4.80544 0.106292,9.39201 0.687595,1.99853 1.424887,3.91638 1.638426,4.2619 0.597001,0.96596 5.502441,0.74556 8.858672,-0.39802 z M 37.629104,134.49421 c 2.193149,-1.03419 4.432937,-2.25868 4.977309,-2.72109 4.605153,-3.9118 4.112228,-11.6423 -0.95402,-14.96183 -1.252817,-0.82088 -2.721907,-1.01008 -6.400644,-0.82431 -5.245827,0.2649 -8.187855,1.7425 -8.567921,4.30315 -0.189131,1.27424 3.114577,12.31579 4.477323,14.96397 0.793249,1.5415 1.851067,1.41722 6.467953,-0.75989 z"
     id="path23088"
     transform="scale(0.75)" />
  <path
     style="fill:#000080;stroke-width:0.640256"
     d="m 88.380205,153.06929 c -2.551872,-4.93478 -16.351393,-49.00022 -16.351393,-52.21423 0,-1.672048 1.39537,-2.233333 5.585799,-2.246878 2.33501,-0.0075 2.834611,0.242581 3.655601,1.830198 1.419001,2.74405 15.728588,48.7401 15.728588,50.55722 0,0.71113 -5.742782,3.94638 -7.005091,3.94638 -0.354804,0 -1.080881,-0.84271 -1.613504,-1.87269 z"
     id="path23127"
     transform="scale(0.75)" />
  <path
     style="fill:#000080;stroke-width:0.640256"
     d="m 114.94352,137.81513 c -1.33606,-4.69736 -6.36759,-26.91841 -8.77572,-38.756752 -2.13189,-10.480378 -2.32288,-12.105236 -1.48593,-12.642111 3.06277,-1.964665 19.50353,-6.949324 24.68439,-7.484036 3.32986,-0.343671 3.33445,-0.341592 4.01417,1.818435 0.37428,1.189374 0.7689,3.026845 0.87693,4.083268 l 0.19642,1.920768 -9.92397,2.561024 -9.92397,2.561025 -0.15633,2.240896 c -0.086,1.232493 0.63431,4.545818 1.60064,7.362943 2.12334,6.19012 2.2492,6.23236 11.54729,3.87542 3.54648,-0.89899 6.71925,-1.63452 7.0506,-1.63452 0.33136,0 0.77569,1.08043 0.9874,2.40096 0.21171,1.32053 0.56596,3.30381 0.78722,4.40729 l 0.40228,2.00634 -6.30763,2.06864 c -7.28092,2.38784 -9.03197,3.34687 -9.80019,5.36742 -0.55532,1.46061 0.60453,9.56613 1.49649,10.45809 0.24341,0.24341 4.24949,-0.48617 8.90239,-1.62129 10.92282,-2.66471 11.82899,-2.66156 12.23777,0.0426 1.02132,6.75618 1.01457,6.86246 -0.45718,7.19624 -3.00377,0.68126 -24.71924,4.16831 -25.95794,4.16831 -0.96812,0 -1.49132,-0.62962 -1.99513,-2.40096 z"
     id="path23166"
     transform="scale(0.75)" />
  <path
     style="fill:#000080;stroke-width:0.640256"
     d="m 164.56279,134.32575 c -0.85159,-4.82126 -5.45915,-47.755026 -5.45915,-50.868982 0,-3.786015 0.88058,-4.705267 4.50734,-4.705267 2.18932,0 1.79631,-0.364028 22.98357,21.288519 5.08246,5.19407 9.61965,9.44377 10.08265,9.44377 1.25311,0 1.06988,-5.22015 -0.7623,-21.716843 -0.8768,-7.894647 -1.48506,-14.463022 -1.3517,-14.59639 0.65016,-0.650158 8.91327,-1.522815 9.43922,-0.996865 0.64159,0.641583 0.67297,0.971031 2.50052,26.248179 1.57935,21.844189 3.23244,30.939989 1.8386,32.333829 -0.55337,0.55337 -2.91475,0.4968 -3.31084,0.4968 -1.81019,0 -6.57784,-4.42493 -19.42192,-18.02581 -7.61371,-8.06233 -14.38715,-14.94994 -15.05208,-15.305799 -1.11458,-0.596507 -1.20838,-0.382854 -1.20148,2.736859 0.004,1.86112 0.86847,9.43394 1.92077,16.82848 1.05231,7.39453 1.91329,14.36368 1.91329,15.48698 0,1.95168 -0.13504,2.06071 -3.04122,2.45555 -1.67267,0.22724 -3.52966,0.54742 -4.12664,0.71151 -0.81662,0.22445 -1.17786,-0.22492 -1.45863,-1.81452 z"
     id="path23205"
     transform="scale(0.75)"
     sodipodi:nodetypes="ssssssssssssscsssss" />
  <path
     style="fill:#000080;stroke-width:0.640256"
     d="m 240.48189,119.88796 c -1.76794,-6.02083 -7.78544,-28.510827 -10.97971,-41.035869 -1.4677,-5.754999 -2.4216,-10.689212 -2.11978,-10.964918 0.30183,-0.275706 2.33905,-0.652847 4.52717,-0.838092 3.33287,-0.28216 4.028,-0.165203 4.28415,0.72082 0.16818,0.581697 1.7852,7.396165 3.59339,15.143264 5.00833,21.457975 7.33003,29.771905 8.31393,29.771905 1.06346,0 2.92995,-8.61642 8.04417,-37.13485 0.97882,-5.458183 1.95949,-10.139294 2.17928,-10.402467 0.21979,-0.263174 2.40278,-0.10917 4.85109,0.342231 4.40006,0.811251 4.4491,0.842658 4.24595,2.719395 -0.1725,1.593625 -10.85575,45.774251 -12.9427,53.524581 l -0.66664,2.47572 h -6.03064 -6.03065 z"
     id="path23244"
     transform="scale(0.75)" />
  <path
     style="fill:#000080;stroke-width:0.640256"
     d="m 297.61121,130.07966 c -6.39787,-0.93957 -11.84711,-1.92345 -12.10942,-2.18641 -0.2623,-0.26295 -0.12467,-3.72033 0.30585,-7.68307 0.43052,-3.96274 1.6227,-16.3933 2.6493,-27.623481 1.02659,-11.230176 1.98138,-20.533355 2.12175,-20.67373 0.36717,-0.367169 29.93021,0.923527 30.3309,1.324221 0.18408,0.184076 0.12778,2.542711 -0.12511,5.241413 l -0.4598,4.906729 -2.65934,-0.390962 c -1.46264,-0.215029 -6.30667,-0.580608 -10.76452,-0.812398 l -8.10519,-0.421435 -0.35249,3.457466 c -1.03848,10.186234 -1.07976,12.100928 -0.26169,12.137875 7.7296,0.349096 15.40866,1.240095 16.17595,1.876892 1.28381,1.06546 1.23919,5.09818 -0.0772,6.97759 -1.02542,1.46398 -1.22012,1.4885 -9.92397,1.24947 l -8.87804,-0.24382 v 5.01752 c 0,5.34 0.54306,7.05463 2.57952,8.14452 0.69832,0.37372 4.89744,0.93659 9.33138,1.25081 4.43395,0.31422 8.22344,0.73304 8.4211,0.9307 0.19766,0.19765 0.0976,2.30646 -0.2224,4.68622 l -0.58179,4.32685 -2.88115,0.10767 c -1.58463,0.0592 -8.11577,-0.66107 -14.51364,-1.60064 z"
     id="path23283"
     transform="scale(0.75)" />
  <path
     style="fill:#000080;stroke-width:0.640256"
     d="m 373.08579,134.91933 c -0.75191,-0.80038 -3.71261,-6.3466 -6.57934,-12.32493 -13.43833,-28.024626 -13.33899,-27.836497 -14.69942,-27.836497 -1.89612,0 -2.33774,1.670501 -5.02511,19.008577 -1.32508,8.549 -2.57817,15.71257 -2.78463,15.91904 -0.6677,0.6677 -8.18296,-1.12294 -8.18296,-1.94973 0,-1.45658 5.16816,-29.915754 7.40386,-40.770381 2.83772,-13.777452 2.929,-13.976213 6.41868,-13.976213 1.69697,0 3.13714,0.404494 3.79991,1.067263 0.587,0.586996 3.12525,5.412926 5.64057,10.72429 7.80746,16.486311 12.86551,26.190331 14.01427,26.886801 0.76064,0.46115 1.3086,0.46284 1.76601,0.005 0.36475,-0.36475 2.14902,-7.84927 3.96504,-16.632267 1.81603,-8.782996 3.50341,-16.203879 3.74976,-16.490852 0.75157,-0.875528 8.36854,0.265315 8.77083,1.313665 0.65474,1.70623 -10.34087,48.600014 -12.58554,53.674464 -1.46039,3.30145 -3.41978,3.77864 -5.67193,1.38134 z"
     id="path23322"
     transform="scale(0.75)" />
  <path
     style="fill:#000080;stroke-width:0.640256"
     d="m 414.56583,151.4171 c -4.40341,-2.09143 -7.94312,-5.456 -10.10011,-9.60037 -2.38813,-4.58851 -2.73316,-13.24077 -0.82458,-20.67769 2.73905,-10.67287 10.46297,-30.883642 11.78475,-30.836538 0.40732,0.01452 2.0371,0.662774 3.62173,1.440576 2.14689,1.053781 2.9297,1.830923 3.07164,3.049419 0.10476,0.899379 -1.38998,6.661683 -3.32164,12.805123 -5.38751,17.13433 -6.15256,20.29704 -6.15256,25.43451 0,7.68818 2.38994,10.38524 9.20267,10.38524 3.07105,0 3.75124,-0.24729 5.50556,-2.00162 3.84909,-3.84909 7.6635,-13.72314 12.89174,-33.37181 2.43183,-9.13927 2.17941,-8.906025 8.04091,-7.43008 l 2.91461,0.7339 -0.40552,3.05692 c -0.84077,6.33804 -8.71265,29.78399 -10.62492,36.00119 -3.57181,11.61275 -16.46415,15.35238 -25.60428,11.01123 z"
     id="path23361"
     transform="scale(0.75)"
     sodipodi:nodetypes="sssssssssssscsss" />
  <path
     style="fill:#000080;stroke-width:0.080032"
     d="m 480.19208,169.23802 c -0.44018,-0.19095 -1.16468,-0.53043 -1.61001,-0.75438 -4.40583,-2.21569 -12.70952,-5.79387 -17.11748,-7.37617 -1.73768,-0.62376 -3.79093,-1.58899 -4.79455,-2.2539 -0.73913,-0.48969 -1.64803,-1.31392 -1.64803,-1.49451 0,-0.0691 0.41107,-1.08235 0.91348,-2.25173 2.51583,-5.85562 5.9561,-14.43916 13.90737,-34.69917 4.62096,-11.77431 5.66244,-14.38918 5.77865,-14.5086 0.22309,-0.22923 3.84874,0.88914 10.53295,3.249 5.95153,2.10118 16.42383,6.00984 17.15348,6.40233 1.11292,0.59865 1.11231,1.17249 -0.005,4.49713 -1.07231,3.19141 -1.38578,3.81893 -1.9825,3.9687 -0.70307,0.17646 -4.44003,-1.04699 -10.74212,-3.51687 -4.97067,-1.94808 -8.02233,-3.01286 -8.63491,-3.01286 -0.3266,0 -0.40685,0.11483 -1.23365,1.7653 -1.80822,3.60954 -4.71959,10.73302 -4.71959,11.54776 0,0.92241 3.11746,2.36162 11.72469,5.41286 3.18807,1.13016 4.77709,1.82031 4.89429,2.12572 0.0576,0.15014 -0.79036,2.24526 -2.05555,5.07874 -0.57981,1.29852 -1.18292,2.65451 -1.34024,3.01331 -0.15733,0.35881 -0.32476,0.63906 -0.37207,0.62278 -0.0473,-0.0163 -1.76069,-0.53711 -3.80751,-1.1574 -4.27887,-1.29671 -5.94888,-1.83697 -8.52341,-2.75738 -3.79057,-1.35516 -4.52451,-1.44525 -5.37641,-0.66 -0.46226,0.42609 -1.02513,1.57585 -1.7525,3.57974 -0.51527,1.41958 -0.93009,2.43321 -1.9097,4.6665 -0.69571,1.58607 -0.80528,2.14592 -0.53553,2.73646 0.42378,0.92778 1.60955,1.55497 6.17513,3.26618 3.08892,1.15776 4.8321,1.71962 9.38877,3.0262 1.54757,0.44376 2.87642,0.84023 2.95299,0.88105 0.18811,0.10027 0.38098,0.49045 0.38098,0.77071 0,1.07311 -2.27491,6.5281 -3.12165,7.48538 -0.7137,0.80688 -1.28081,0.88497 -2.5206,0.34712 z"
     id="path24979"
     transform="scale(0.75)" />
</svg>
